<svg xmlns="http://www.w3.org/2000/svg" xmlns:xlink="http://www.w3.org/1999/xlink" width="32" height="40"><defs><path id="a" d="M15.606 39.783H0V.19h31.211v39.592z"/></defs><g fill="none" fill-rule="evenodd"><path fill="#DDD" d="M15.606.91S10.326 5.113.543 5.113v15.376c0 8.639 7.661 14.742 15.063 18.705 7.401-3.963 15.062-10.066 15.062-18.705V5.112C20.885 5.112 15.606.91 15.606.91"/><g transform="translate(0 .027)"><mask id="b" fill="#fff"><use xlink:href="#a"/></mask><path fill="#35495E" d="M1.087 5.624V20.46c0 6.784 4.885 12.87 14.519 18.088 9.633-5.219 14.518-11.304 14.518-18.088V5.624c-8.262-.129-13.217-3.16-14.518-4.066-1.302.907-6.257 3.937-14.52 4.066zm14.519 34.159l-.257-.138C5.164 34.192-.001 27.738-.001 20.461V4.541h.544c4.94 0 8.68-1.11 10.947-2.04C13.948 1.49 15.255.468 15.268.458l.338-.267.338.268c.034.026 1.34 1.04 3.777 2.042 2.267.93 6.007 2.04 10.947 2.04h.543v15.92c0 7.277-5.164 13.731-15.349 19.184l-.256.138z" mask="url(#b)"/></g><path fill="#F9DAD9" d="M15.606 4.87S11.418 8.202 3.659 8.202v12.196c0 6.852 6.076 11.692 11.947 14.835 5.87-3.143 11.946-7.983 11.946-14.835V8.202c-7.759 0-11.946-3.332-11.946-3.332"/><path fill="#EDD1D1" d="M15.606 35.233c5.87-3.143 11.946-7.983 11.946-14.835V8.202c-7.759 0-11.946-3.332-11.946-3.332"/><path fill="#35495E" d="M4.203 8.74v11.658c0 5.324 3.836 10.106 11.403 14.218 7.567-4.112 11.402-8.894 11.402-14.218V8.74c-6.384-.125-10.273-2.427-11.402-3.199-1.13.772-5.02 3.074-11.403 3.2zm11.403 27.11l-.257-.138C7.232 31.366 3.116 26.213 3.116 20.398V7.658h.543c7.483 0 11.568-3.18 11.608-3.213l.339-.269.337.269c.04.032 4.155 3.214 11.609 3.214h.543v12.739c0 5.815-4.115 10.968-12.233 15.314l-.256.138z"/><path fill="#35495E" d="M9.012 28.467a.652.652 0 0 1-.652-.652v-1.087a.652.652 0 1 1 1.304 0v1.087c0 .36-.292.652-.652.652m3.261 0a.652.652 0 0 1-.652-.652v-1.087a.652.652 0 1 1 1.304 0v1.087c0 .36-.292.652-.652.652m3.261 0a.652.652 0 0 1-.653-.652v-1.087a.652.652 0 1 1 1.305 0v1.087c0 .36-.292.652-.652.652m3.26 0a.652.652 0 0 1-.652-.652v-1.087a.652.652 0 1 1 1.305 0v1.087c0 .36-.292.652-.652.652m3.26 0a.652.652 0 0 1-.652-.652v-1.087a.652.652 0 1 1 1.305 0v1.087c0 .36-.292.652-.653.652"/><path fill="#F8EFE0" d="M21.972 17.066a6.16 6.16 0 1 1-12.319 0 6.16 6.16 0 0 1 12.32 0"/><path fill="#35495E" d="M15.813 23.77a6.71 6.71 0 0 1-6.703-6.704c0-2.007.889-3.893 2.439-5.172a.543.543 0 1 1 .691.839 5.602 5.602 0 0 0-2.043 4.333 5.622 5.622 0 0 0 5.616 5.616 5.622 5.622 0 0 0 5.616-5.616 5.622 5.622 0 0 0-5.616-5.616.544.544 0 0 1 0-1.087 6.71 6.71 0 0 1 6.703 6.703 6.71 6.71 0 0 1-6.703 6.703"/><path fill="#36495E" d="M13.8 16.343h.541c.165 0 .291-.038.379-.113a.408.408 0 0 0 .131-.325.467.467 0 0 0-.135-.348c-.09-.088-.216-.132-.38-.132H13.8v.918zm0 .63v1.356h-.824v-3.536h1.36c.41 0 .734.095.974.284.24.19.36.449.36.777 0 .183-.049.34-.145.471a1.023 1.023 0 0 1-.426.321c.217.062.372.164.467.307a.951.951 0 0 1 .142.536v.223c0 .093.014.198.042.316a.42.42 0 0 0 .143.253v.048h-.845c-.065-.05-.108-.139-.128-.267a2.28 2.28 0 0 1-.03-.355v-.213c0-.169-.045-.297-.134-.386-.089-.09-.219-.134-.39-.134H13.8zm4.03.047c0-.222-.031-.4-.096-.534a.324.324 0 0 0-.311-.202.491.491 0 0 0-.234.051.374.374 0 0 0-.152.148v1.098a.35.35 0 0 0 .154.126.599.599 0 0 0 .237.042c.144 0 .247-.06.31-.179.062-.119.093-.285.093-.499v-.05zm.82.051c0 .395-.09.712-.268.95-.178.24-.429.36-.753.36a.747.747 0 0 1-.336-.074.749.749 0 0 1-.256-.211v1.243h-.821v-3.638h.767l.03.29a.817.817 0 0 1 .262-.25.685.685 0 0 1 .35-.088c.325 0 .577.125.756.376.179.251.268.582.268.991v.051z"/><path fill="#35495E" d="M15.634 12.338l-1.343-1.344a.123.123 0 0 1 0-.174l1.343-1.344a.124.124 0 0 1 .211.087v2.687c0 .11-.133.165-.21.088"/></g></svg>