<svg xmlns="http://www.w3.org/2000/svg" xmlns:xlink="http://www.w3.org/1999/xlink" width="40" height="39"><defs><path id="a" d="M0 38.081h39.962V0H0z"/></defs><g fill="none" fill-rule="evenodd"><path fill="#F9DAD9" d="M34.672 33.927H1.614a.997.997 0 0 1-.997-.997V5.89c0-.55.447-.997.997-.997h33.058c.55 0 .997.447.997.997v27.04c0 .55-.446.997-.997.997z"/><path fill="#35495E" d="M1.614 5.512a.38.38 0 0 0-.38.38V32.93c0 .209.171.38.38.38h33.058a.38.38 0 0 0 .38-.38V5.89a.38.38 0 0 0-.38-.38H1.614zm33.058 29.032H1.614C.724 34.544 0 33.82 0 32.93V5.89C0 5 .724 4.276 1.614 4.276h33.058c.89 0 1.615.724 1.615 1.614v27.04c0 .89-.724 1.614-1.615 1.614z"/><path fill="#F9DAD9" d="M34.672 33.927H1.614a.997.997 0 0 1-.997-.997V5.89c0-.55.447-.997.997-.997h33.058c.55 0 .997.447.997.997v27.04c0 .55-.446.997-.997.997"/><path fill="#35495E" d="M1.614 5.512a.38.38 0 0 0-.38.38V32.93c0 .209.171.38.38.38h33.058a.38.38 0 0 0 .38-.38V5.89a.38.38 0 0 0-.38-.38H1.614zm33.058 29.032H1.614C.724 34.544 0 33.82 0 32.93V5.89C0 5 .724 4.276 1.614 4.276h33.058c.89 0 1.615.724 1.615 1.614v27.04c0 .89-.724 1.614-1.615 1.614z"/><mask id="b" fill="#fff"><use xlink:href="#a"/></mask><path fill="#F0BCBA" d="M.958 33.412h34.711v-3H.958z" mask="url(#b)"/><path fill="#35495E" d="M20.067 31.909a.617.617 0 0 1-.618-.618v-1.76a.617.617 0 1 1 1.235 0v1.76a.617.617 0 0 1-.617.618m-3.951 0a.617.617 0 0 1-.617-.618v-1.76a.617.617 0 1 1 1.234 0v1.76a.617.617 0 0 1-.617.618m-3.951 0a.617.617 0 0 1-.617-.618v-1.76a.617.617 0 1 1 1.235 0v1.76a.617.617 0 0 1-.618.618m19.753 0a.617.617 0 0 1-.617-.618v-1.76a.617.617 0 1 1 1.235 0v1.76a.617.617 0 0 1-.618.618m-3.95 0a.617.617 0 0 1-.617-.618v-1.76a.617.617 0 1 1 1.234 0v1.76a.617.617 0 0 1-.617.618m-3.951 0a.617.617 0 0 1-.617-.618v-1.76a.617.617 0 1 1 1.234 0v1.76a.617.617 0 0 1-.617.618m-15.802 0a.617.617 0 0 1-.618-.618v-1.76a.617.617 0 1 1 1.235 0v1.76a.617.617 0 0 1-.617.618m-3.951 0a.617.617 0 0 1-.617-.618v-1.76a.617.617 0 1 1 1.234 0v1.76a.617.617 0 0 1-.617.618" mask="url(#b)"/><path fill="#35495E" d="M1.614 5.512a.38.38 0 0 0-.38.38V32.93c0 .209.171.38.38.38h33.058a.38.38 0 0 0 .38-.38V5.89a.38.38 0 0 0-.38-.38H1.614zm33.058 29.032H1.614C.724 34.544 0 33.82 0 32.93V5.89C0 5 .724 4.276 1.614 4.276h33.058c.89 0 1.615.724 1.615 1.614v27.04c0 .89-.724 1.614-1.615 1.614z" mask="url(#b)"/><path fill="#F9DAD9" d="M34.558 5.802H1.713c-.54 0-.92-.448-.75-.883l1.499-3.841c.107-.275.41-.46.751-.46h29.882c.343 0 .647.187.753.464l1.463 3.841c.165.435-.216.88-.753.88" mask="url(#b)"/><path fill="#35495E" d="M1.544 5.126c.02.023.076.06.17.06h32.844c.093 0 .15-.037.17-.06L33.27 1.302c-.007-.015-.066-.067-.176-.067H3.213c-.11 0-.17.052-.176.068L1.544 5.126zM34.558 6.42H1.714c-.49 0-.936-.226-1.195-.605a1.192 1.192 0 0 1-.132-1.12l1.5-3.842C2.086.343 2.619 0 3.213 0h29.882c.599 0 1.133.347 1.33.863l1.463 3.84c.142.376.092.782-.138 1.117-.26.375-.705.6-1.192.6z" mask="url(#b)"/><path fill="#35495E" d="M17.947 6.129a.617.617 0 0 1-.618-.617V.617a.617.617 0 1 1 1.235 0v4.895a.617.617 0 0 1-.617.617" mask="url(#b)"/><path fill="#F0BCBA" d="M21.188 13.045h-6.394c-.89 0-1.617-.728-1.617-1.618 0-.89.728-1.618 1.617-1.618h6.394c.89 0 1.618.728 1.618 1.618 0 .89-.728 1.618-1.618 1.618" mask="url(#b)"/><path fill="#35495E" d="M14.795 10.426a1.002 1.002 0 0 0 0 2.002h6.393a1.002 1.002 0 0 0 0-2.002h-6.393zm6.393 3.236h-6.393a2.238 2.238 0 0 1-2.236-2.235 2.238 2.238 0 0 1 2.236-2.235h6.393a2.238 2.238 0 0 1 2.235 2.235 2.238 2.238 0 0 1-2.235 2.235z" mask="url(#b)"/><path fill="#F8EFE0" d="M39.257 29.007l-1.203-1.752a.488.488 0 0 1-.083-.331l.21-1.874a.49.49 0 0 0-.371-.53l-1.52-.367a.49.49 0 0 1-.334-.28l-.85-1.947a.49.49 0 0 0-.562-.28l-1.673.402a.489.489 0 0 1-.432-.104l-1.437-1.232a.489.489 0 0 0-.636 0l-1.437 1.232a.489.489 0 0 1-.432.104l-1.673-.402a.49.49 0 0 0-.562.28l-.85 1.948a.49.49 0 0 1-.334.28l-1.52.366a.49.49 0 0 0-.371.53l.21 1.874a.49.49 0 0 1-.083.331l-1.204 1.752a.488.488 0 0 0 .044.609l1.08 1.166a.49.49 0 0 1 .129.35l-.072 1.96a.489.489 0 0 0 .345.484l1.462.45a.49.49 0 0 1 .306.274l.738 1.72c.085.2.293.318.508.292l2.011-.247a.49.49 0 0 1 .382.118l1.318 1.16a.49.49 0 0 0 .646 0l1.318-1.16a.49.49 0 0 1 .382-.118l2.01.247a.489.489 0 0 0 .509-.292l.738-1.72a.49.49 0 0 1 .305-.274l1.462-.45a.488.488 0 0 0 .345-.485l-.071-1.96a.488.488 0 0 1 .13-.35l1.078-1.165a.49.49 0 0 0 .044-.609" mask="url(#b)"/><path fill="#35495E" d="M38.749 29.356zm-10.03 6.088c.268 0 .529.097.732.276l1.233 1.084 1.233-1.084c.236-.208.55-.307.864-.268l1.916.235.7-1.63c.128-.3.38-.525.691-.621l1.368-.42-.068-1.862c-.01-.295.094-.576.294-.792l1.009-1.09-1.146-1.668a1.107 1.107 0 0 1-.187-.748l.197-1.763-1.41-.34a1.113 1.113 0 0 1-.755-.632l-.806-1.85-1.57.377a1.11 1.11 0 0 1-.977-.235l-1.353-1.16-1.353 1.16c-.268.23-.634.318-.977.235l-1.57-.377-.807 1.85a1.11 1.11 0 0 1-.754.632l-1.41.34.197 1.763a1.1 1.1 0 0 1-.187.747l-1.146 1.669 1.01 1.09c.2.217.304.498.293.792l-.068 1.861 1.368.42c.31.097.563.323.691.622l.7 1.63 1.915-.235a1.11 1.11 0 0 1 .134-.008zm1.965 2.637c-.261 0-.522-.092-.73-.275l-1.275-1.121-1.953.24a1.108 1.108 0 0 1-1.151-.662l-.715-1.665-1.405-.432a1.107 1.107 0 0 1-.78-1.098l.07-1.906-1.044-1.127a1.1 1.1 0 0 1-.1-1.377l1.177-1.713-.204-1.827a1.108 1.108 0 0 1 .84-1.198l1.457-.352.825-1.89c.215-.491.75-.757 1.272-.632l1.61.386 1.386-1.189a1.1 1.1 0 0 1 1.44 0l1.386 1.19 1.61-.387a1.105 1.105 0 0 1 1.272.633l.824 1.89 1.458.35c.541.132.902.647.84 1.199l-.204 1.827 1.176 1.713a1.1 1.1 0 0 1-.1 1.377l-1.043 1.127.07 1.907c.018.5-.302.95-.78 1.097l-1.405.432-.715 1.665a1.11 1.11 0 0 1-1.151.661l-1.953-.239-1.275 1.121a1.103 1.103 0 0 1-.73.275z" mask="url(#b)"/><path fill="#F8EFE0" d="M36.198 29.03a5.514 5.514 0 1 1-11.029 0 5.514 5.514 0 0 1 11.03 0" mask="url(#b)"/><path fill="#35495E" d="M30.684 23.762a5.273 5.273 0 0 0-5.268 5.268 5.273 5.273 0 0 0 5.268 5.267 5.273 5.273 0 0 0 5.268-5.267 5.273 5.273 0 0 0-5.268-5.268m0 11.029a5.768 5.768 0 0 1-5.761-5.761 5.768 5.768 0 0 1 5.76-5.762 5.768 5.768 0 0 1 5.762 5.762 5.768 5.768 0 0 1-5.761 5.76" mask="url(#b)"/><path fill="#35495E" d="M30.684 23.762c-1.615 0-2.46 2.626-2.46 5.22 0 2.64.845 5.315 2.46 5.315.916 0 1.484-.866 1.799-1.593.42-.968.66-2.325.66-3.723 0-2.594-.845-5.219-2.46-5.219m0 11.029c-2.028 0-2.952-3.012-2.952-5.81 0-1.47.246-2.842.693-3.86.533-1.212 1.314-1.853 2.26-1.853 2.029 0 2.953 2.961 2.953 5.713 0 1.484-.249 2.876-.7 3.92-.537 1.236-1.315 1.89-2.253 1.89" mask="url(#b)"/><path fill="#35495E" d="M30.484 27.039c-1.593 0-3.181-.32-4.261-.97a.247.247 0 0 1 .254-.423c2.109 1.267 6.274 1.206 8.254-.12a.247.247 0 1 1 .275.41c-1.092.732-2.81 1.103-4.522 1.103m4.696 5.256a.247.247 0 0 1-.137-.042c-1.975-1.323-6.457-1.386-8.566-.12a.247.247 0 1 1-.254-.424c2.28-1.369 6.955-1.3 9.095.134a.247.247 0 0 1-.138.452" mask="url(#b)"/></g></svg>