<svg xmlns="http://www.w3.org/2000/svg" xmlns:xlink="http://www.w3.org/1999/xlink" width="40" height="27"><defs><path id="a" d="M0 23.4h36.475V.007H0z"/><path id="c" d="M0 26.993h39.845V0H0z"/></defs><g fill="none" fill-rule="evenodd"><path fill="#F8EFE0" d="M38.14 26.431H5.076a1.144 1.144 0 0 1-1.143-1.145V5.307c0-.632.512-1.145 1.143-1.145h33.066c.631 0 1.143.513 1.143 1.145v19.98c0 .632-.512 1.144-1.143 1.144z"/><g transform="translate(3.37 3.593)"><mask id="b" fill="#fff"><use xlink:href="#a"/></mask><path fill="#35495E" d="M1.705 1.132a.582.582 0 0 0-.581.582v19.979c0 .321.26.582.58.582H34.77c.32 0 .581-.26.581-.582V1.713c0-.32-.26-.581-.581-.581H1.705zM34.77 23.4H1.705C.765 23.4 0 22.634 0 21.693V1.713C0 .774.765.008 1.705.008H34.77c.94 0 1.705.765 1.705 1.707v19.979c0 .941-.765 1.707-1.705 1.707z" mask="url(#b)"/></g><path fill="#F9DAD9" d="M34.77 22.831H1.705a1.144 1.144 0 0 1-1.143-1.145V1.707c0-.632.512-1.145 1.143-1.145H34.77c.631 0 1.143.513 1.143 1.145v19.98c0 .632-.512 1.144-1.143 1.144"/><path fill="#35495E" d="M1.705 1.125a.582.582 0 0 0-.581.582v19.98c0 .32.26.582.58.582H34.77c.32 0 .581-.261.581-.583V1.707c0-.32-.26-.582-.581-.582H1.705zM34.77 23.394H1.705c-.94 0-1.705-.766-1.705-1.708V1.707C0 .766.765 0 1.705 0H34.77c.94 0 1.705.766 1.705 1.707v19.98c0 .94-.765 1.707-1.705 1.707z"/><mask id="d" fill="#fff"><use xlink:href="#c"/></mask><path fill="#F0BCBA" d="M.562 10.613h35.351V4.088H.562z" mask="url(#d)"/><path fill="#35495E" d="M1.124 10.05H35.35v-5.4H1.124v5.4zM0 11.175h36.475v-7.65H0v7.65z" mask="url(#d)"/><path fill="#F9DAD9" d="M4.704 6.856v1.125" mask="url(#d)"/><path fill="#35495E" d="M4.704 8.656a.675.675 0 0 1-.674-.675V6.856a.675.675 0 1 1 1.349 0v1.125a.675.675 0 0 1-.675.675" mask="url(#d)"/><path fill="#F9DAD9" d="M8.075 6.856v1.125" mask="url(#d)"/><path fill="#35495E" d="M8.075 8.656a.675.675 0 0 1-.674-.675V6.856a.675.675 0 1 1 1.348 0v1.125a.675.675 0 0 1-.674.675" mask="url(#d)"/><path fill="#F9DAD9" d="M11.446 6.856v1.125" mask="url(#d)"/><path fill="#35495E" d="M11.446 8.656a.675.675 0 0 1-.674-.675V6.856a.675.675 0 1 1 1.348 0v1.125a.675.675 0 0 1-.674.675" mask="url(#d)"/><path fill="#F9DAD9" d="M14.817 6.856v1.125" mask="url(#d)"/><path fill="#35495E" d="M14.817 8.656a.675.675 0 0 1-.674-.675V6.856a.675.675 0 1 1 1.348 0v1.125a.675.675 0 0 1-.674.675" mask="url(#d)"/><path fill="#F9DAD9" d="M18.187 6.856v1.125" mask="url(#d)"/><path fill="#35495E" d="M18.188 8.656a.675.675 0 0 1-.675-.675V6.856a.675.675 0 1 1 1.349 0v1.125a.675.675 0 0 1-.674.675" mask="url(#d)"/><path fill="#F9DAD9" d="M21.783 6.856v1.125" mask="url(#d)"/><path fill="#35495E" d="M21.783 8.656a.675.675 0 0 1-.674-.675V6.856a.675.675 0 1 1 1.348 0v1.125a.675.675 0 0 1-.674.675" mask="url(#d)"/><path fill="#F9DAD9" d="M25.154 6.856v1.125" mask="url(#d)"/><path fill="#35495E" d="M25.154 8.656a.675.675 0 0 1-.674-.675V6.856a.675.675 0 1 1 1.348 0v1.125a.675.675 0 0 1-.674.675" mask="url(#d)"/><path fill="#F9DAD9" d="M28.524 6.856v1.125" mask="url(#d)"/><path fill="#35495E" d="M28.525 8.656a.675.675 0 0 1-.675-.675V6.856a.675.675 0 1 1 1.349 0v1.125a.675.675 0 0 1-.674.675" mask="url(#d)"/><path fill="#F9DAD9" d="M31.895 6.856v1.125" mask="url(#d)"/><path fill="#35495E" d="M31.895 8.656a.675.675 0 0 1-.674-.675V6.856a.675.675 0 1 1 1.349 0v1.125a.675.675 0 0 1-.675.675m-17.78 6.419H4.527a.562.562 0 0 1 0-1.125h9.588a.562.562 0 0 1 0 1.125m6.742 0h-4.195a.562.562 0 0 1 0-1.125h4.195a.562.562 0 0 1 0 1.125M8.272 17.55H4.527a.562.562 0 0 1 0-1.125h3.745a.562.562 0 0 1 0 1.125" mask="url(#d)"/><path fill="#F0BCBA" d="M29.171 16.06a1.547 1.547 0 1 1-3.093.002 1.547 1.547 0 0 1 3.093-.002" mask="url(#d)"/><path fill="#35495E" d="M27.626 15.075a.986.986 0 0 0 0 1.97.986.986 0 0 0 0-1.97m0 3.095a2.111 2.111 0 0 1 0-4.22 2.111 2.111 0 0 1 0 4.22" mask="url(#d)"/><path fill="#F8EFE0" d="M32.093 16.06a1.547 1.547 0 1 1-3.094.002 1.547 1.547 0 0 1 3.094-.002" mask="url(#d)"/><path fill="#35495E" d="M30.547 15.075a.986.986 0 0 0 0 1.97.986.986 0 0 0 0-1.97m0 3.095a2.111 2.111 0 0 1 0-4.22 2.111 2.111 0 0 1 0 4.22" mask="url(#d)"/></g></svg>