<svg xmlns="http://www.w3.org/2000/svg" width="16" height="13"><g fill="#666"><path d="M14.026.025H1.954A1.955 1.955 0 0 0 0 1.979v8.25c0 1.078.876 1.954 1.954 1.954h12.07a1.955 1.955 0 0 0 1.953-1.953V1.982a1.953 1.953 0 0 0-1.95-1.957zm1.062 10.205c0 .585-.476 1.06-1.062 1.06H1.954a1.062 1.062 0 0 1-1.061-1.06V1.982c0-.585.476-1.061 1.06-1.061h12.07c.585 0 1.061.476 1.061 1.06v8.249h.004z"/><path d="M10.076 6.002l3.907-3.504a.448.448 0 0 0 .034-.632.448.448 0 0 0-.632-.033L7.997 6.67l-1.052-.938c-.003-.004-.006-.007-.006-.01a.661.661 0 0 0-.073-.063L2.588 1.83a.446.446 0 0 0-.631.036.446.446 0 0 0 .036.632L5.947 6.03 2.01 9.717a.448.448 0 0 0 .611.655l3.997-3.739 1.084.969a.446.446 0 0 0 .596-.004L9.412 6.6l3.973 3.775A.446.446 0 0 0 14 9.727l-3.924-3.725z"/></g></svg>