<svg xmlns="http://www.w3.org/2000/svg" xmlns:xlink="http://www.w3.org/1999/xlink" width="40" height="40"><defs><path id="a" d="M39.877 18.844v19.837H0V.062h39.877v18.782H0v19.837h39.877V18.844z"/><path id="c" d="M0 38.84h39.877V.22H0z"/></defs><g fill="none" fill-rule="evenodd"><path fill="#FFF" d="M0 0h40v40H0z"/><g transform="translate(0 .648)"><path fill="#F9DAD9" d="M39.147 31.88c.146 4.835.293 6.3-2.051 6.3H2.78c-2.344 0-2.197-1.465-2.05-6.3.146-4.836 2.197-5.275 8.937-9.085 6.74-3.81 7.472-3.077 10.27-3.077 2.799 0 3.531-.732 10.271 3.077 6.74 3.81 8.791 4.25 8.938 9.085z"/><g transform="translate(0 .158)"><mask id="b" fill="#fff"><use xlink:href="#a"/></mask><path fill="#35495E" d="M17.935 20.164c-1.566 0-3.205.37-7.943 3.047-.857.485-1.648.92-2.347 1.305-4.839 2.663-6.14 3.38-6.256 7.226l-.018.58c-.08 2.57-.133 4.266.355 4.77.113.116.345.27 1.055.27h34.314c.711 0 .943-.154 1.056-.27.488-.504.435-2.2.355-4.768l-.018-.582c-.117-3.847-1.417-4.563-6.256-7.226-.698-.385-1.49-.82-2.347-1.305-5.59-3.16-6.867-3.105-8.8-3.022-.355.015-.724.03-1.146.03-.424 0-.792-.015-1.148-.03a20.126 20.126 0 0 0-.856-.025m19.16 18.517H2.781c-.58 0-1.418-.07-2.002-.671-.876-.905-.826-2.517-.726-5.728l.018-.58c.14-4.6 1.99-5.618 6.938-8.341.696-.383 1.484-.817 2.334-1.297 5.92-3.346 7.424-3.282 9.505-3.193.342.015.696.03 1.09.03.395 0 .75-.015 1.092-.03 2.08-.09 3.584-.153 9.504 3.193.85.48 1.638.914 2.334 1.297 4.947 2.723 6.798 3.742 6.938 8.34l.018.582c.1 3.21.15 4.822-.726 5.727-.584.602-1.423.671-2.003.671" mask="url(#b)"/></g><path fill="#F8EFE0" d="M11.367 21.95s3.334 5.44 8.26 5.44c4.927 0 8.636-5.657 8.636-5.657l-2.426-1.03-10.535-.608-3.935 1.855z"/><mask id="d" fill="#fff"><use xlink:href="#c"/></mask><path fill="#F0BCBA" d="M1.149 37.74h37.604V34.7H1.149z" mask="url(#d)"/><path fill="#35495E" d="M17.935 20.322c-1.566 0-3.205.37-7.943 3.047-.857.484-1.648.92-2.347 1.305-4.839 2.663-6.14 3.379-6.256 7.226l-.018.58c-.08 2.57-.133 4.266.355 4.77.113.116.345.27 1.055.27h34.314c.711 0 .943-.154 1.056-.27.488-.504.435-2.2.355-4.768l-.018-.582c-.117-3.847-1.417-4.563-6.256-7.226-.698-.385-1.49-.82-2.347-1.305-5.59-3.16-6.867-3.106-8.8-3.023-.355.016-.724.032-1.146.032-.424 0-.792-.016-1.148-.032a20.126 20.126 0 0 0-.856-.024m19.16 18.517H2.781c-.58 0-1.418-.07-2.002-.671-.876-.905-.826-2.517-.726-5.728l.018-.58c.14-4.6 1.99-5.618 6.938-8.341.696-.383 1.484-.817 2.334-1.298 5.92-3.346 7.424-3.281 9.505-3.192.342.015.696.03 1.09.03.395 0 .75-.015 1.092-.03 2.08-.09 3.584-.154 9.504 3.192.85.48 1.638.915 2.334 1.297 4.947 2.724 6.798 3.742 6.938 8.342l.018.58c.1 3.211.15 4.823-.726 5.728-.584.602-1.423.671-2.003.671" mask="url(#d)"/><path fill="#35495E" d="M3.433 35.908a.66.66 0 0 1-.66-.66V34.15a.66.66 0 1 1 1.319 0v1.1a.66.66 0 0 1-.66.659m3.298-.001a.66.66 0 0 1-.66-.66V34.15a.66.66 0 1 1 1.319 0v1.1a.66.66 0 0 1-.66.659m3.297-.001a.66.66 0 0 1-.66-.66V34.15a.66.66 0 1 1 1.32 0v1.1a.66.66 0 0 1-.66.659m3.297-.001a.66.66 0 0 1-.66-.66V34.15a.66.66 0 1 1 1.319 0v1.1a.66.66 0 0 1-.66.659m3.298-.001a.66.66 0 0 1-.66-.66V34.15a.66.66 0 1 1 1.319 0v1.1a.66.66 0 0 1-.66.659m3.297-.001a.66.66 0 0 1-.66-.66V34.15a.66.66 0 1 1 1.32 0v1.1a.66.66 0 0 1-.66.659m3.297-.001a.66.66 0 0 1-.66-.66V34.15a.66.66 0 1 1 1.32 0v1.1a.66.66 0 0 1-.66.659m3.297-.001a.66.66 0 0 1-.66-.66V34.15a.66.66 0 1 1 1.319 0v1.1a.66.66 0 0 1-.66.659m3.297-.001a.66.66 0 0 1-.659-.66V34.15a.66.66 0 1 1 1.319 0v1.1a.66.66 0 0 1-.66.659m3.297-.001a.66.66 0 0 1-.66-.66V34.15a.66.66 0 1 1 1.32 0v1.1a.66.66 0 0 1-.66.659m3.297-.001a.66.66 0 0 1-.66-.66V34.15a.66.66 0 1 1 1.32 0v1.1a.66.66 0 0 1-.66.659" mask="url(#d)"/><path fill="#F8EFE0" d="M15.704 1.725S26.4-2.671 29.33 7.439c-1.612.44-1.721.22-1.465 1.246.256 1.025 3.113 5.75-1.465 11.428-2.308 2.418-4.058 4.323-6.461 4.323-2.404 0-4.968-1.465-7.385-6.52-.44-1.1-.733-1.539-1.393-1.832-.659-.293-2.417-4.322 0-4.689.147-1.172-1.611-9.743 4.543-9.67" mask="url(#d)"/><path fill="#35495E" d="M13.057 17.694c1.996 4.167 4.247 6.192 6.882 6.192 2.103 0 3.686-1.66 5.878-3.958l.17-.177c3.773-4.695 2.23-8.619 1.572-10.295a5.802 5.802 0 0 1-.227-.638c-.111-.444-.207-.827 0-1.167.206-.34.552-.422 1.125-.558l.176-.042c-.8-2.37-2.143-4.024-4-4.922-3.836-1.854-8.673.084-8.721.104a.525.525 0 0 1-.215.041c-1.196-.014-2.105.32-2.767 1.02-1.614 1.706-1.381 5.144-1.256 6.991.038.565.063.938.033 1.178a.55.55 0 0 1-.463.476c-.412.062-.628.25-.722.628-.26 1.043.558 2.76.886 3.025.835.38 1.2.984 1.649 2.102zm6.882 7.291c-3.105 0-5.683-2.235-7.881-6.832a1.075 1.075 0 0 1-.015-.033c-.433-1.085-.656-1.335-1.105-1.534-.773-.344-1.731-2.552-1.535-4.005.108-.802.532-1.36 1.212-1.611a31.339 31.339 0 0 0-.038-.61c-.136-2.015-.39-5.766 1.554-7.82.851-.9 2.018-1.36 3.47-1.365.782-.301 5.504-1.967 9.504-.038 2.291 1.105 3.89 3.174 4.753 6.15a.55.55 0 0 1-.383.682c-.305.083-.557.143-.764.193-.133.032-.277.066-.382.096.02.099.05.22.069.294.024.096.098.284.183.502.668 1.697 2.44 6.205-1.754 11.404a.757.757 0 0 1-.03.035l-.185.194c-2.29 2.401-4.1 4.298-6.673 4.298z" mask="url(#d)"/><path fill="#FAF6EF" d="M17.828 23.474s10.609-5.883 10.151-14.37c.263.653 2.395 7.454-1.679 11.01-4.073 3.555-6.182 4.826-8.472 3.36" mask="url(#d)"/><path fill="#DDD" d="M28.35 7.684s-7.518 1.138-12.06-1.646c-1.392 1.466-1.801 3.369-5.187 3.956-.063-1.39-.606-7.716 4.085-8.253 4.692-.538 10.699-2.882 14.142 5.103 0 .595-.98.84-.98.84" mask="url(#d)"/><path fill="#35495E" d="M21.316 1.55c-1.32 0-2.68.22-4.025.438a44.59 44.59 0 0 1-2.04.299c-2.592.297-3.781 2.6-3.628 7.036 1.85-.465 2.53-1.398 3.306-2.461.291-.4.592-.812.962-1.202l.307-.322.379.232c4.185 2.565 11.159 1.646 11.662 1.575.212-.06.426-.177.509-.26-1.915-4.305-4.579-5.334-7.432-5.334zm-10.733 9.092l-.039-.826c-.279-5.34 1.262-8.24 4.581-8.621.638-.073 1.295-.18 1.99-.292 4.27-.69 9.584-1.549 12.72 5.724l.045.104v.113c0 .996-1.255 1.338-1.398 1.373l-.05.01c-.08.012-1.956.29-4.423.227-3.124-.08-5.68-.657-7.606-1.715-.203.245-.39.503-.586.77-.87 1.194-1.857 2.547-4.62 3.026l-.614.107z" mask="url(#d)"/><path fill="#35495E" d="M13.057 17.694c1.996 4.167 4.247 6.192 6.882 6.192 2.103 0 3.686-1.66 5.878-3.958l.17-.177c3.773-4.695 2.23-8.619 1.572-10.295a5.802 5.802 0 0 1-.227-.638c-.111-.444-.207-.827 0-1.167.206-.34.552-.422 1.125-.558l.176-.042c-.8-2.37-2.143-4.024-4-4.922-3.836-1.854-8.673.084-8.721.104a.525.525 0 0 1-.215.041c-1.196-.014-2.105.32-2.767 1.02-1.614 1.706-1.381 5.144-1.256 6.991.038.565.063.938.033 1.178a.55.55 0 0 1-.463.476c-.412.062-.628.25-.722.628-.26 1.043.558 2.76.886 3.025.835.38 1.2.984 1.649 2.102zm6.882 7.291c-3.105 0-5.683-2.235-7.881-6.832a1.075 1.075 0 0 1-.015-.033c-.433-1.085-.656-1.335-1.105-1.534-.773-.344-1.731-2.552-1.535-4.005.108-.802.532-1.36 1.212-1.611a31.339 31.339 0 0 0-.038-.61c-.136-2.015-.39-5.766 1.554-7.82.851-.9 2.018-1.36 3.47-1.365.782-.301 5.504-1.967 9.504-.038 2.291 1.105 3.89 3.174 4.753 6.15a.55.55 0 0 1-.383.682c-.305.083-.557.143-.764.193-.133.032-.277.066-.382.096.02.099.05.22.069.294.024.096.098.284.183.502.668 1.697 2.44 6.205-1.754 11.404a.757.757 0 0 1-.03.035l-.185.194c-2.29 2.401-4.1 4.298-6.673 4.298z" mask="url(#d)"/><path fill="#8B8E98" d="M21.463 21.643h-2.728a.467.467 0 0 1-.467-.467v-1.041c0-.259.21-.468.467-.468h2.728c.258 0 .468.21.468.468v1.04c0 .259-.21.468-.468.468" mask="url(#d)"/><path fill="#35495E" d="M18.817 21.093h2.564v-.876h-2.564v.876zm2.647 1.1h-2.729a1.02 1.02 0 0 1-1.017-1.017v-1.041c0-.561.456-1.017 1.017-1.017h2.729c.56 0 1.016.456 1.016 1.017v1.04c0 .561-.456 1.017-1.016 1.017z" mask="url(#d)"/><path fill="#35495E" d="M22.883 21.253a9.426 9.426 0 0 1-1.055-.052.549.549 0 1 1 .132-1.091c.032.003 3.252.368 4.923-1.108.663-.585.987-1.372.993-2.407a.55.55 0 0 1 .55-.546h.002a.55.55 0 0 1 .547.552c-.007 1.348-.467 2.434-1.368 3.228-1.382 1.219-3.471 1.424-4.724 1.424" mask="url(#d)"/><path fill="#F0BCBA" d="M28.971 16.922h-1.978a.068.068 0 0 1-.069-.069v-5.518c0-.038.03-.069.069-.069h1.978c.349 0 .632.283.632.632v4.392a.631.631 0 0 1-.632.632" mask="url(#d)"/><path fill="#35495E" d="M27.473 16.372h1.498a.082.082 0 0 0 .082-.082v-4.392a.082.082 0 0 0-.082-.082h-1.498v4.556zm1.498 1.1h-1.978a.619.619 0 0 1-.618-.619v-5.518c0-.34.277-.618.618-.618h1.978c.651 0 1.181.53 1.181 1.18v4.393c0 .652-.53 1.181-1.18 1.181z" mask="url(#d)"/></g></g></svg>