<svg xmlns="http://www.w3.org/2000/svg" width="18" height="18"><path fill="#666" stroke="#666" stroke-width=".4" d="M13.744 16.857c-.66 0-1.457-.166-2.333-.496-1.92-.725-4.011-2.156-5.885-4.03C3.65 10.456 2.22 8.365 1.495 6.444c-.659-1.746-.66-3.18-.004-3.836.095-.094.19-.196.29-.3C2.38 1.678 3.057.969 3.954 1c.618.026 1.217.41 1.83 1.173 1.812 2.254.995 3.057.05 3.988l-.167.165c-.155.155-.447.871 2.272 3.59.887.888 1.644 1.537 2.249 1.93.38.248 1.062.622 1.341.343l.168-.17c.93-.943 1.733-1.758 3.986.053.763.613 1.146 1.212 1.172 1.831.037.897-.677 1.575-1.308 2.173-.104.1-.205.196-.3.29-.325.326-.846.49-1.503.49zM3.89 1.533c-.638 0-1.213.606-1.723 1.142-.102.108-.201.212-.299.31-.489.489-.44 1.772.126 3.272.699 1.851 2.087 3.875 3.91 5.697 1.821 1.821 3.844 3.21 5.696 3.908 1.5.566 2.783.614 3.27.126.099-.097.203-.197.31-.298.549-.52 1.17-1.11 1.143-1.765-.019-.45-.346-.934-.974-1.438-1.876-1.509-2.401-.976-3.272-.093l-.17.172c-.416.416-1.092.324-2.01-.272-.636-.414-1.422-1.087-2.335-2C5.306 8.036 4.584 6.656 5.29 5.948l.17-.168c.885-.87 1.419-1.396-.09-3.274-.506-.626-.99-.954-1.439-.973H3.89z"/></svg>