<svg xmlns="http://www.w3.org/2000/svg" width="16" height="16"><g fill="#666"><path d="M13.652 2.344A7.942 7.942 0 0 0 7.996 0 7.942 7.942 0 0 0 2.34 2.344C-.582 5.267-.785 9.945 1.836 13.101c-.257.518-.67 1.12-1.282 1.42a.75.75 0 0 0 .216 1.414c.153.024.37.048.633.048.707 0 1.749-.166 2.815-.934a7.999 7.999 0 0 0 9.438-1.394A7.942 7.942 0 0 0 15.998 8a7.945 7.945 0 0 0-2.347-5.656zm-.646 10.666a7.085 7.085 0 0 1-8.599 1.102.455.455 0 0 0-.555.072.15.15 0 0 0-.037.027c-.917.71-1.816.859-2.412.859H1.4c.686-.5 1.12-1.245 1.373-1.823.04-.099.047-.2.024-.295a.475.475 0 0 0-.112-.257 7.094 7.094 0 0 1 .298-9.705c2.764-2.763 7.26-2.763 10.02 0a7.087 7.087 0 0 1 .003 10.02z"/><circle cx="7.996" cy="8" r="1"/><circle cx="10.892" cy="8" r="1"/><circle cx="5.1" cy="8" r="1"/></g></svg>